<svg width="24" height="24" viewBox="0 0 24 24" fill="none" xmlns="http://www.w3.org/2000/svg">
<path opacity="0.4" fill-rule="evenodd" clip-rule="evenodd" d="M23 15.22C23.4142 15.22 23.75 15.5558 23.75 15.97C23.75 20.2542 20.2842 23.72 16 23.72C15.7298 23.72 15.4805 23.5746 15.3474 23.3395C15.2142 23.1044 15.2179 22.8158 15.3569 22.5841L16.4069 20.8341C16.62 20.4789 17.0807 20.3637 17.4359 20.5769C17.7911 20.79 17.9062 21.2507 17.6931 21.6058L17.4218 22.058C20.1909 21.4156 22.25 18.9365 22.25 15.97C22.25 15.5558 22.5858 15.22 23 15.22Z" fill="white"/>
<path opacity="0.4" fill-rule="evenodd" clip-rule="evenodd" d="M6.5782 1.88191C3.8091 2.52434 1.75 5.00339 1.75 7.96997C1.75 8.38418 1.41421 8.71997 1 8.71997C0.585786 8.71997 0.25 8.38418 0.25 7.96997C0.25 3.68576 3.71579 0.219971 8 0.219971C8.2702 0.219971 8.51952 0.365315 8.65265 0.600446C8.78578 0.835578 8.78214 1.12414 8.64312 1.35584L7.59312 3.10584C7.38001 3.46103 6.91931 3.5762 6.56413 3.36309C6.20894 3.14998 6.09377 2.68928 6.30688 2.3341L6.5782 1.88191Z" fill="white"/>
<path opacity="0.4" d="M14.85 15.33C14.85 18.74 12.09 21.5 8.68001 21.5C5.27001 21.5 2.51001 18.74 2.51001 15.33C2.51001 11.92 5.27001 9.15997 8.68001 9.15997C8.84001 9.15997 8.99001 9.16999 9.16001 9.17999C12.19 9.40999 14.61 11.83 14.84 14.86C14.84 15.01 14.85 15.16 14.85 15.33Z" fill="white"/>
<path d="M21.5 8.66998C21.5 12.08 18.74 14.84 15.33 14.84H14.84C14.61 11.81 12.19 9.38997 9.15997 9.15997V8.66998C9.15997 5.25998 11.92 2.5 15.33 2.5C18.74 2.5 21.5 5.25998 21.5 8.66998Z" fill="white"/>
<path d="M11.12 15.01C11.24 14.76 11.31 14.49 11.31 14.2C11.31 13.2 10.43 12.32 9.43 12.32H9.16999V11.94C9.16999 11.53 8.82999 11.19 8.41999 11.19C8.00999 11.19 7.66999 11.53 7.66999 11.94V12.32H6.62C6.21 12.32 5.87 12.66 5.87 13.07V15.32V17.57C5.87 17.98 6.21 18.32 6.62 18.32H7.66999V18.7C7.66999 19.11 8.00999 19.45 8.41999 19.45C8.82999 19.45 9.16999 19.11 9.16999 18.7V18.32H9.83C10.95 18.32 11.87 17.48 11.87 16.44C11.87 15.87 11.57 15.35 11.12 15.01ZM7.37 13.82H9.43C9.64 13.82 9.81 14.05 9.81 14.2C9.81 14.41 9.64 14.58 9.43 14.58H7.37V13.82ZM9.83 16.83H7.36V16.08H9.41999H9.82C10.14 16.08 10.36 16.28 10.36 16.46C10.36 16.64 10.15 16.83 9.83 16.83Z" fill="white"/>
</svg>
