<svg width="18" height="18" viewBox="0 0 18 18" fill="none" xmlns="http://www.w3.org/2000/svg">
<path d="M9.60001 12.9598C9.60001 12.8173 9.65254 12.6748 9.76504 12.5623C9.98254 12.3448 10.3425 12.3448 10.56 12.5623L12.9525 14.9548L15.345 12.5623C15.5625 12.3448 15.9225 12.3448 16.14 12.5623C16.3575 12.7798 16.3575 13.1398 16.14 13.3573L13.35 16.1473C13.245 16.2523 13.1025 16.3123 12.9525 16.3123C12.8025 16.3123 12.66 16.2523 12.555 16.1473L9.76504 13.3573C9.66004 13.2448 9.60001 13.1023 9.60001 12.9598Z" fill="white"/>
<path d="M12.39 15.75L12.39 2.25C12.39 1.9425 12.645 1.6875 12.9525 1.6875C13.26 1.6875 13.515 1.9425 13.515 2.25L13.515 15.75C13.515 16.0575 13.26 16.3125 12.9525 16.3125C12.645 16.3125 12.39 16.0575 12.39 15.75Z" fill="white"/>
<path d="M1.68752 5.03998C1.68752 4.89748 1.74 4.755 1.8525 4.6425L4.64252 1.85248C4.74752 1.74748 4.89 1.6875 5.04 1.6875C5.19 1.6875 5.33252 1.74748 5.43752 1.85248L8.2275 4.6425C8.445 4.86 8.445 5.22 8.2275 5.4375C8.01 5.655 7.65 5.655 7.4325 5.4375L5.04 3.045L2.64754 5.4375C2.43004 5.655 2.07 5.655 1.8525 5.4375C1.74 5.3325 1.68752 5.18998 1.68752 5.03998Z" fill="white"/>
<path d="M4.48498 15.75L4.48499 2.25C4.48499 1.9425 4.73999 1.6875 5.04749 1.6875C5.35499 1.6875 5.60999 1.9425 5.60999 2.25L5.60998 15.75C5.60998 16.0575 5.35498 16.3125 5.04748 16.3125C4.73998 16.3125 4.48498 16.0575 4.48498 15.75Z" fill="white"/>
</svg>
